<svg xmlns="http://www.w3.org/2000/svg" viewBox="0 0 800 800">
  <!-- Brain outline -->
  <path d="M400 150 C 250 150, 150 250, 150 400 C 150 550, 250 650, 400 650 C 550 650, 650 550, 650 400 C 650 250, 550 150, 400 150 Z" fill="#f2f2f2" stroke="#333" stroke-width="3" opacity="0.9"/>
  
  <!-- Brain details -->
  <path d="M250 300 C 300 250, 350 275, 400 250 C 450 275, 500 250, 550 300 C 600 350, 575 400, 600 450 C 575 500, 600 550, 550 500 C 500 550, 450 525, 400 550 C 350 525, 300 550, 250 500 C 200 550, 225 500, 200 450 C 225 400, 200 350, 250 300 Z" fill="#e6e6e6" stroke="#555" stroke-width="2" opacity="0.8"/>
  
  <!-- Neural connections - main nodes -->
  <circle cx="300" cy="350" r="15" fill="#6a89cc" opacity="0.8"/>
  <circle cx="500" cy="350" r="15" fill="#6a89cc" opacity="0.8"/>
  <circle cx="350" cy="450" r="15" fill="#6a89cc" opacity="0.8"/>
  <circle cx="450" cy="450" r="15" fill="#6a89cc" opacity="0.8"/>
  <circle cx="400" cy="300" r="15" fill="#6a89cc" opacity="0.8"/>
  <circle cx="400" cy="500" r="15" fill="#6a89cc" opacity="0.8"/>
  <circle cx="300" cy="400" r="15" fill="#6a89cc" opacity="0.8"/>
  <circle cx="500" cy="400" r="15" fill="#6a89cc" opacity="0.8"/>
  
  <!-- Neural connections - smaller nodes -->
  <circle cx="350" cy="300" r="8" fill="#82ccdd" opacity="0.7"/>
  <circle cx="450" cy="300" r="8" fill="#82ccdd" opacity="0.7"/>
  <circle cx="350" cy="400" r="8" fill="#82ccdd" opacity="0.7"/>
  <circle cx="450" cy="400" r="8" fill="#82ccdd" opacity="0.7"/>
  <circle cx="350" cy="500" r="8" fill="#82ccdd" opacity="0.7"/>
  <circle cx="450" cy="500" r="8" fill="#82ccdd" opacity="0.7"/>
  <circle cx="300" cy="450" r="8" fill="#82ccdd" opacity="0.7"/>
  <circle cx="500" cy="450" r="8" fill="#82ccdd" opacity="0.7"/>
  <circle cx="300" cy="300" r="8" fill="#82ccdd" opacity="0.7"/>
  <circle cx="500" cy="300" r="8" fill="#82ccdd" opacity="0.7"/>
  
  <!-- Neural connections - lines -->
  <line x1="300" y1="350" x2="350" y2="300" stroke="#b8e994" stroke-width="2" opacity="0.6"/>
  <line x1="300" y1="350" x2="350" y2="400" stroke="#b8e994" stroke-width="2" opacity="0.6"/>
  <line x1="300" y1="350" x2="300" y2="400" stroke="#b8e994" stroke-width="2" opacity="0.6"/>
  <line x1="300" y1="350" x2="300" y2="300" stroke="#b8e994" stroke-width="2" opacity="0.6"/>
  
  <line x1="500" y1="350" x2="450" y2="300" stroke="#b8e994" stroke-width="2" opacity="0.6"/>
  <line x1="500" y1="350" x2="450" y2="400" stroke="#b8e994" stroke-width="2" opacity="0.6"/>
  <line x1="500" y1="350" x2="500" y2="400" stroke="#b8e994" stroke-width="2" opacity="0.6"/>
  <line x1="500" y1="350" x2="500" y2="300" stroke="#b8e994" stroke-width="2" opacity="0.6"/>
  
  <line x1="350" y1="450" x2="300" y2="400" stroke="#b8e994" stroke-width="2" opacity="0.6"/>
  <line x1="350" y1="450" x2="350" y2="400" stroke="#b8e994" stroke-width="2" opacity="0.6"/>
  <line x1="350" y1="450" x2="400" y2="500" stroke="#b8e994" stroke-width="2" opacity="0.6"/>
  <line x1="350" y1="450" x2="300" y2="450" stroke="#b8e994" stroke-width="2" opacity="0.6"/>
  
  <line x1="450" y1="450" x2="500" y2="400" stroke="#b8e994" stroke-width="2" opacity="0.6"/>
  <line x1="450" y1="450" x2="450" y2="400" stroke="#b8e994" stroke-width="2" opacity="0.6"/>
  <line x1="450" y1="450" x2="400" y2="500" stroke="#b8e994" stroke-width="2" opacity="0.6"/>
  <line x1="450" y1="450" x2="500" y2="450" stroke="#b8e994" stroke-width="2" opacity="0.6"/>
  
  <line x1="400" y1="300" x2="350" y2="300" stroke="#b8e994" stroke-width="2" opacity="0.6"/>
  <line x1="400" y1="300" x2="450" y2="300" stroke="#b8e994" stroke-width="2" opacity="0.6"/>
  <line x1="400" y1="300" x2="400" y2="350" stroke="#b8e994" stroke-width="2" opacity="0.6"/>
  
  <line x1="400" y1="500" x2="350" y2="500" stroke="#b8e994" stroke-width="2" opacity="0.6"/>
  <line x1="400" y1="500" x2="450" y2="500" stroke="#b8e994" stroke-width="2" opacity="0.6"/>
  <line x1="400" y1="500" x2="400" y2="450" stroke="#b8e994" stroke-width="2" opacity="0.6"/>
  
  <!-- Animated pulses -->
  <circle cx="400" cy="400" r="5" fill="#ff9ff3" opacity="0.8">
    <animate attributeName="r" values="5;15;5" dur="3s" repeatCount="indefinite" />
    <animate attributeName="opacity" values="0.8;0.2;0.8" dur="3s" repeatCount="indefinite" />
  </circle>
  
  <circle cx="350" cy="350" r="5" fill="#ff9ff3" opacity="0.8">
    <animate attributeName="r" values="5;10;5" dur="2s" repeatCount="indefinite" />
    <animate attributeName="opacity" values="0.8;0.3;0.8" dur="2s" repeatCount="indefinite" />
  </circle>
  
  <circle cx="450" cy="350" r="5" fill="#ff9ff3" opacity="0.8">
    <animate attributeName="r" values="5;10;5" dur="2.5s" repeatCount="indefinite" />
    <animate attributeName="opacity" values="0.8;0.3;0.8" dur="2.5s" repeatCount="indefinite" />
  </circle>
  
  <!-- Glowing effect -->
  <filter id="glow">
    <feGaussianBlur stdDeviation="5" result="blur" />
    <feComposite in="SourceGraphic" in2="blur" operator="over" />
  </filter>
  
  <!-- Apply glow to the entire brain -->
  <circle cx="400" cy="400" r="200" fill="#6a89cc" opacity="0.1" filter="url(#glow)" />
</svg>